<?xml version="1.0" encoding="UTF-8" standalone="no"?>
<svg
   xmlns:dc="http://purl.org/dc/elements/1.1/"
   xmlns:cc="http://creativecommons.org/ns#"
   xmlns:rdf="http://www.w3.org/1999/02/22-rdf-syntax-ns#"
   xmlns:svg="http://www.w3.org/2000/svg"
   xmlns="http://www.w3.org/2000/svg"
   xmlns:sodipodi="http://sodipodi.sourceforge.net/DTD/sodipodi-0.dtd"
   xmlns:inkscape="http://www.inkscape.org/namespaces/inkscape"
   version="1.1"
   width="24"
   height="24"
   viewBox="0 0 24 24"
   id="svg3775"
   sodipodi:docname="start.svg"
   inkscape:version="0.92.3 (unknown)">
  <metadata
     id="metadata3781">
    <rdf:RDF>
      <cc:Work
         rdf:about="">
        <dc:format>image/svg+xml</dc:format>
        <dc:type
           rdf:resource="http://purl.org/dc/dcmitype/StillImage" />
      </cc:Work>
    </rdf:RDF>
  </metadata>
  <defs
     id="defs3779" />
  <sodipodi:namedview
     pagecolor="#ffffff"
     bordercolor="#666666"
     borderopacity="1"
     objecttolerance="10"
     gridtolerance="10"
     guidetolerance="10"
     inkscape:pageopacity="0"
     inkscape:pageshadow="2"
     inkscape:window-width="1303"
     inkscape:window-height="724"
     id="namedview3777"
     showgrid="false"
     inkscape:zoom="22.291667"
     inkscape:cx="12"
     inkscape:cy="11.184914"
     inkscape:window-x="0"
     inkscape:window-y="0"
     inkscape:window-maximized="1"
     inkscape:current-layer="svg3775" />
  <path
     d="m 17.179439,11.775701 -5,5 v -3 H 8.1794393 V 9.7757009 h 3.9999997 v -3 l 5,5.0000001 m 4,4.5 c 0,0.38 -0.21,0.71 -0.53,0.88 l -7.9,4.44 c -0.16,0.12 -0.36,0.18 -0.57,0.18 -0.21,0 -0.41,-0.06 -0.57,-0.18 l -7.8999997,-4.44 c -0.32,-0.17 -0.53,-0.5 -0.53,-0.88 V 7.2757009 c 0,-0.38 0.21,-0.71 0.53,-0.88 l 7.8999997,-4.44 c 0.16,-0.12 0.36,-0.18 0.57,-0.18 0.21,0 0.41,0.06 0.57,0.18 l 7.9,4.44 c 0.32,0.17 0.53,0.5 0.53,0.88 v 9.0000001 m -9,-12.3500001 -6.9999997,3.94 v 7.8200001 l 6.9999997,3.94 7,-3.94 V 7.8657009 Z"
     id="path3773"
     inkscape:connector-curvature="0"
     style="fill:#00ff00" />
</svg>
