<?xml version="1.0" encoding="UTF-8" standalone="no"?>
<svg
   xmlns:dc="http://purl.org/dc/elements/1.1/"
   xmlns:cc="http://creativecommons.org/ns#"
   xmlns:rdf="http://www.w3.org/1999/02/22-rdf-syntax-ns#"
   xmlns:svg="http://www.w3.org/2000/svg"
   xmlns="http://www.w3.org/2000/svg"
   xmlns:sodipodi="http://sodipodi.sourceforge.net/DTD/sodipodi-0.dtd"
   xmlns:inkscape="http://www.inkscape.org/namespaces/inkscape"
   version="1.1"
   width="24"
   height="24"
   viewBox="0 0 24 24"
   id="svg4910"
   sodipodi:docname="robot.svg"
   inkscape:version="0.92.3 (unknown)">
  <metadata
     id="metadata4916">
    <rdf:RDF>
      <cc:Work
         rdf:about="">
        <dc:format>image/svg+xml</dc:format>
        <dc:type
           rdf:resource="http://purl.org/dc/dcmitype/StillImage" />
      </cc:Work>
    </rdf:RDF>
  </metadata>
  <defs
     id="defs4914" />
  <sodipodi:namedview
     pagecolor="#ffffff"
     bordercolor="#666666"
     borderopacity="1"
     objecttolerance="10"
     gridtolerance="10"
     guidetolerance="10"
     inkscape:pageopacity="0"
     inkscape:pageshadow="2"
     inkscape:window-width="1303"
     inkscape:window-height="724"
     id="namedview4912"
     showgrid="false"
     inkscape:zoom="9.8333333"
     inkscape:cx="-6.7118644"
     inkscape:cy="12"
     inkscape:window-x="0"
     inkscape:window-y="0"
     inkscape:window-maximized="1"
     inkscape:current-layer="svg4910" />
  <path
     d="M12,2A2,2 0 0,1 14,4C14,4.74 13.6,5.39 13,5.73V7H14A7,7 0 0,1 21,14H22A1,1 0 0,1 23,15V18A1,1 0 0,1 22,19H21V20A2,2 0 0,1 19,22H5A2,2 0 0,1 3,20V19H2A1,1 0 0,1 1,18V15A1,1 0 0,1 2,14H3A7,7 0 0,1 10,7H11V5.73C10.4,5.39 10,4.74 10,4A2,2 0 0,1 12,2M7.5,13A2.5,2.5 0 0,0 5,15.5A2.5,2.5 0 0,0 7.5,18A2.5,2.5 0 0,0 10,15.5A2.5,2.5 0 0,0 7.5,13M16.5,13A2.5,2.5 0 0,0 14,15.5A2.5,2.5 0 0,0 16.5,18A2.5,2.5 0 0,0 19,15.5A2.5,2.5 0 0,0 16.5,13Z"
     id="path4908"
     style="fill-opacity:1;fill:#e6e6e6;stroke:#ff7d00;stroke-opacity:1" />
</svg>
