<?xml version="1.0" encoding="UTF-8" standalone="no"?>
<svg
   xmlns:dc="http://purl.org/dc/elements/1.1/"
   xmlns:cc="http://creativecommons.org/ns#"
   xmlns:rdf="http://www.w3.org/1999/02/22-rdf-syntax-ns#"
   xmlns:svg="http://www.w3.org/2000/svg"
   xmlns="http://www.w3.org/2000/svg"
   xmlns:sodipodi="http://sodipodi.sourceforge.net/DTD/sodipodi-0.dtd"
   xmlns:inkscape="http://www.inkscape.org/namespaces/inkscape"
   version="1.1"
   width="24"
   height="24"
   viewBox="0 0 24 24"
   id="svg4061"
   sodipodi:docname="cloud-question.svg"
   inkscape:version="0.92.3 (unknown)">
  <metadata
     id="metadata4067">
    <rdf:RDF>
      <cc:Work
         rdf:about="">
        <dc:format>image/svg+xml</dc:format>
        <dc:type
           rdf:resource="http://purl.org/dc/dcmitype/StillImage" />
      </cc:Work>
    </rdf:RDF>
  </metadata>
  <defs
     id="defs4065" />
  <sodipodi:namedview
     pagecolor="#ffffff"
     bordercolor="#666666"
     borderopacity="1"
     objecttolerance="10"
     gridtolerance="10"
     guidetolerance="10"
     inkscape:pageopacity="0"
     inkscape:pageshadow="2"
     inkscape:window-width="1303"
     inkscape:window-height="724"
     id="namedview4063"
     showgrid="false"
     inkscape:zoom="9.8333333"
     inkscape:cx="-6.7118644"
     inkscape:cy="14.072577"
     inkscape:window-x="0"
     inkscape:window-y="0"
     inkscape:window-maximized="1"
     inkscape:current-layer="svg4061" />
  <path
     d="M19.35,10.03C18.67,6.59 15.64,4 12,4C9.11,4 6.6,5.64 5.35,8.03C2.34,8.36 0,10.9 0,14A6,6 0 0,0 6,20H19A5,5 0 0,0 24,15C24,12.36 21.95,10.22 19.35,10.03M13,17H11V15H13V17M14.8,11.82C14.5,12.21 14.13,12.5 13.67,12.75C13.41,12.91 13.24,13.07 13.15,13.26C13.06,13.45 13,13.69 13,14H11C11,13.45 11.11,13.08 11.3,12.82C11.5,12.56 11.85,12.25 12.37,11.91C12.63,11.75 12.84,11.56 13,11.32C13.15,11.09 13.23,10.81 13.23,10.5C13.23,10.18 13.14,9.94 12.96,9.76C12.78,9.56 12.5,9.47 12.2,9.47C11.93,9.47 11.71,9.55 11.5,9.7C11.35,9.85 11.25,10.08 11.25,10.39H9.28C9.23,9.64 9.5,9 10.06,8.59C10.6,8.2 11.31,8 12.2,8C13.14,8 13.89,8.23 14.43,8.68C14.97,9.13 15.24,9.75 15.24,10.5C15.24,11 15.09,11.41 14.8,11.82Z"
     id="path4059"
     style="fill:#69cfcf;stroke:none;stroke-opacity:1;stroke-width:0.4;stroke-miterlimit:4;stroke-dasharray:none;fill-opacity:1" />
</svg>
